<svg width="30" height="30" viewBox="0 0 30 30" fill="none" xmlns="http://www.w3.org/2000/svg">
<path d="M11.3034 4.45511C9.66294 6.73962 8.71774 9.43278 8.71774 12.3135C8.71774 18.879 13.6234 24.4663 20.4664 26.4962C19.4977 26.6838 18.49 26.7843 17.4511 26.7843C9.88948 26.7843 3.74957 21.5118 3.74957 14.9933C3.74957 10.3774 6.82734 6.39125 11.3112 4.45511H11.3034ZM16.1544 0.0334971C7.11636 0.602948 0 7.08129 0 14.9933C0 23.2805 7.8116 30 17.4589 30C21.1929 30 24.6456 28.9951 27.489 27.28C27.6374 27.1929 27.778 27.0992 27.9186 27.0121C28.2936 26.7709 28.6529 26.5163 29.0045 26.2483C29.2154 26.0875 29.4185 25.9268 29.6216 25.7593C30.0122 25.431 30.1137 24.9218 29.8637 24.5065C29.6138 24.0911 29.0748 23.8566 28.5358 23.937C28.2467 23.9772 27.9577 24.0174 27.6687 24.0442C27.2781 24.0777 26.8797 24.1045 26.4735 24.1112C26.3798 24.1112 26.2782 24.1112 26.1845 24.1112C26.1767 24.1112 26.1688 24.1112 26.161 24.1112C18.5994 24.0978 12.4751 18.8254 12.4751 12.3202C12.4751 8.64895 14.4202 5.37293 17.4824 3.20902C17.5605 3.14873 17.6464 3.09513 17.7323 3.03484C18.0448 2.82046 18.3729 2.61947 18.7088 2.43189C18.9509 2.2979 19.2009 2.16391 19.4587 2.04332C19.9352 1.80884 20.1774 1.33988 20.0602 0.884323C19.943 0.428763 19.4899 0.0870925 18.9431 0.046896C18.6619 0.0267977 18.3885 0.0133987 18.1073 0.00669932C17.8964 -1.02325e-07 17.6776 0 17.4667 0C17.2089 0 16.959 0.00669947 16.7012 0.0133989C16.5215 0.0200983 16.3419 0.0267976 16.1622 0.0401964L16.1544 0.0334971Z" fill="#FFEB38"/>
</svg>
