<svg width="30" height="30" viewBox="0 0 30 30" fill="none" xmlns="http://www.w3.org/2000/svg">
<path d="M17.4544 0C7.80956 0 0 6.71652 0 15C0 23.2835 7.80956 30 17.4544 30C22.187 30 26.4744 28.3795 29.6217 25.7545C30.0121 25.4263 30.1137 24.9174 29.8638 24.5022C29.6139 24.0871 29.075 23.8527 28.5361 23.933C27.7708 24.0469 26.9898 24.1071 26.1855 24.1071C18.618 24.1071 12.4797 18.8304 12.4797 12.3214C12.4797 7.91518 15.2911 4.07812 19.4536 2.0558C19.93 1.82143 20.1721 1.35268 20.055 0.897322C19.9378 0.441964 19.4849 0.100447 18.9382 0.060268C18.4462 0.0267858 17.9542 0.00669633 17.4544 0.00669633V0Z" fill="#FFEB38"/>
</svg>
